<svg xmlns="http://www.w3.org/2000/svg" viewBox="0 0 64 64" role="img" aria-label="AI School Management">
  <rect width="64" height="64" rx="14" fill="#4f46e5"/>
  <path fill="#fff" d="M32 14c-1.2 0-2.2.7-2.6 1.8L18.8 40.2c-.5 1.2.4 2.5 1.7 2.5h4.2c.8 0 1.5-.5 1.8-1.2L32 25.6l5.5 15.9c.3.7 1 1.2 1.8 1.2h4.2c1.3 0 2.2-1.3 1.7-2.5L34.6 15.8C34.2 14.7 33.2 14 32 14z"/>
  <path fill="#fff" d="M22 46h20c1.1 0 2 .9 2 2s-.9 2-2 2H22c-1.1 0-2-.9-2-2s.9-2 2-2z"/>
  <circle cx="48" cy="18" r="5" fill="#14b8a6"/>
</svg>
